# File created by Blade
# Date/Time:  Fri Jan 16 17:45:28 2015
# Frame Rate: 120.000 fps
#------------------------------------------------------
:FULLY-SPECIFIED
:DEGREES
3750
root -5.110863 35.222782 -9.693558 -0.285185 -4.540928 -6.379906
Spine -5.636164 -5.738173 10.338673
Head 8.697886 6.645129 -7.580909
LeftShoulder -22.140735 13.267267 -13.505137
LeftArm 13.628447 -8.265035 -79.856929
LeftForeArm 3.976685 -0.000000 12.726334
LeftHand 1.893219 -0.000000 -4.563448
LeftHandThumb1 -26.253704 0.000000 33.147579
RightShoulder -15.132592 5.570043 3.187345
RightArm -33.839937 72.133904 38.733272
RightForeArm 28.256662 -0.000000 126.961238
RightHand -3.291987 -0.000000 -74.931449
RightHandThumb1 -24.326973 -0.000000 -32.862282
LeftUpLeg 10.647746 13.957513 6.820181
LeftLeg -9.434624 -0.000000 0.000000
LeftFoot -15.836107 27.698860 -7.435784
LeftToeBase 23.126122 -0.000000 -0.000000
RightUpLeg 7.097902 -5.079666 4.130548
RightLeg -4.081345 -0.000000 0.000000
RightFoot -4.899058 -27.434697 5.079333
RightToeBase 13.482255 -0.000000 -0.000000
3751
root -5.111397 35.223045 -9.695169 -0.281186 -4.534327 -6.377641
Spine -5.635405 -5.724406 10.307301
Head 8.686456 6.543046 -7.531031
LeftShoulder -22.132587 13.259869 -13.507546
LeftArm 13.626165 -8.302232 -79.841735
LeftForeArm 4.029996 -0.000000 12.720643
LeftHand 1.898602 0.000000 -4.439799
LeftHandThumb1 -26.253704 0.000000 33.147579
RightShoulder -15.080098 5.576972 3.183483
RightArm -33.802620 72.019236 38.755764
RightForeArm 28.453746 -0.000000 126.362057
RightHand -3.179781 -0.000000 -75.054540
RightHandThumb1 -24.326973 -0.000000 -32.862282
LeftUpLeg 10.639430 13.965092 6.818292
LeftLeg -9.437009 -0.000000 0.000000
LeftFoot -15.817989 27.686709 -7.436965
LeftToeBase 23.093739 -0.000000 -0.000000
RightUpLeg 7.092205 -5.077987 4.130797
RightLeg -4.082056 -0.000000 0.000000
RightFoot -4.895933 -27.439511 5.075004
RightToeBase 13.497482 -0.000000 -0.000000
3752
root -5.111595 35.222829 -9.697020 -0.273595 -4.527920 -6.370510
Spine -5.634937 -5.715857 10.269112
Head 8.662688 6.455413 -7.473674
LeftShoulder -22.139053 13.258463 -13.512184
LeftArm 13.639019 -8.291774 -79.815031
LeftForeArm 4.009460 -0.000000 12.691751
LeftHand 1.918360 0.000000 -4.432371
LeftHandThumb1 -26.253704 0.000000 33.147579
RightShoulder -15.026650 5.685469 3.162432
RightArm -33.990791 71.811071 38.561533
RightForeArm 28.612418 -0.000000 125.753617
RightHand -3.466574 0.000000 -75.227040
RightHandThumb1 -24.326973 -0.000000 -32.862282
LeftUpLeg 10.628295 13.952687 6.807027
LeftLeg -9.442626 -0.000000 0.000000
LeftFoot -15.806116 27.701323 -7.434183
LeftToeBase 23.073042 -0.000000 -0.000000
RightUpLeg 7.079442 -5.075796 4.126588
RightLeg -4.080431 -0.000000 0.000000
RightFoot -4.890660 -27.460591 5.068693
RightToeBase 13.470320 -0.000000 -0.000000
3753
root -5.112512 35.222964 -9.699748 -0.262514 -4.518880 -6.365671
Spine -5.640610 -5.707299 10.230523
Head 8.652038 6.355011 -7.423398
LeftShoulder -22.145823 13.242020 -13.512227
LeftArm 13.634260 -8.281509 -79.781602
LeftForeArm 3.875443 -0.000000 12.689274
LeftHand 1.782510 -0.000000 -4.657039
LeftHandThumb1 -26.253704 0.000000 33.147579
RightShoulder -14.982988 5.562516 3.189251
RightArm -33.613105 71.784374 38.931147
RightForeArm 29.043927 -0.000000 125.095404
RightHand -3.512856 0.000000 -75.343312
RightHandThumb1 -24.326973 -0.000000 -32.862282
LeftUpLeg 10.607568 13.928652 6.798887
LeftLeg -9.436102 -0.000000 0.000000
LeftFoot -15.807446 27.709335 -7.434279
LeftToeBase 23.056728 -0.000000 -0.000000
RightUpLeg 7.060893 -5.085713 4.125725
RightLeg -4.072370 -0.000000 0.000000
RightFoot -4.895637 -27.455773 5.054442
RightToeBase 13.485075 -0.000000 -0.000000
3754
root -5.113838 35.223139 -9.701743 -0.266657 -4.508647 -6.365248
Spine -5.636677 -5.692046 10.204633
Head 8.667404 6.238805 -7.400219
LeftShoulder -22.126759 13.234640 -13.518328
LeftArm 13.632898 -8.286595 -79.750872
LeftForeArm 3.810513 -0.000000 12.663468
LeftHand 1.826811 -0.000000 -4.762958
LeftHandThumb1 -26.253704 0.000000 33.147579
RightShoulder -14.919863 5.600874 3.188362
RightArm -33.617066 71.647271 38.911703
RightForeArm 29.450534 -0.000000 124.453431
RightHand -3.674714 -0.000000 -75.493145
RightHandThumb1 -24.326973 -0.000000 -32.862282
LeftUpLeg 10.586118 13.980861 6.798172
LeftLeg -9.404741 -0.000000 0.000000
LeftFoot -15.842334 27.655729 -7.574605
LeftToeBase 22.947122 -0.000000 -0.000000
RightUpLeg 7.058810 -5.106880 4.126436
RightLeg -4.065146 -0.000000 0.000000
RightFoot -4.893314 -27.445092 5.043330
RightToeBase 13.473279 -0.000000 -0.000000
3755
root -5.107998 35.223189 -9.699615 -0.255417 -4.599508 -6.380899
Spine -5.648805 -5.595456 10.244743
Head 8.689281 6.179513 -7.436325
LeftShoulder -22.153307 13.231336 -13.571454
LeftArm 13.626464 -8.244878 -79.721389
LeftForeArm 3.770183 0.000000 12.642256
LeftHand 1.817657 -0.000000 -4.753281
LeftHandThumb1 -26.253704 0.000000 33.147579
RightShoulder -14.855143 5.580884 3.137780
RightArm -33.452518 71.578106 39.076149
RightForeArm 30.043979 -0.000000 123.786848
RightHand -3.631565 -0.000000 -75.513727
RightHandThumb1 -24.326973 -0.000000 -32.862282
LeftUpLeg 10.629679 14.070685 6.814484
LeftLeg -9.455342 -0.000000 0.000000
LeftFoot -15.805300 27.661044 -7.428753
LeftToeBase 23.062928 -0.000000 -0.000000
RightUpLeg 7.034876 -5.002760 4.132688
RightLeg -4.039951 -0.000000 0.000000
RightFoot -4.899066 -27.445481 5.074529
RightToeBase 13.448133 -0.000000 -0.000000
3756
root -5.106191 35.223094 -9.700702 -0.254814 -4.607418 -6.385080
Spine -5.647954 -5.553146 10.242707
Head 8.702272 6.081697 -7.443152
LeftShoulder -22.145016 13.234188 -13.599271
LeftArm 13.638223 -8.236749 -79.692720
LeftForeArm 3.782288 -0.000000 12.619080
LeftHand 1.847687 -0.000000 -4.754390
LeftHandThumb1 -26.253704 0.000000 33.147579
RightShoulder -14.800965 5.603421 3.124027
RightArm -33.392288 71.490765 39.142997
RightForeArm 30.571905 -0.000000 123.136084
RightHand -3.798269 -0.000000 -75.483455
RightHandThumb1 -24.326973 -0.000000 -32.862282
LeftUpLeg 10.638733 14.052456 6.813245
LeftLeg -9.474344 -0.000000 0.000000
LeftFoot -15.798904 27.690867 -7.423909
LeftToeBase 23.095538 -0.000000 -0.000000
RightUpLeg 7.028626 -4.990983 4.133971
RightLeg -4.031101 -0.000000 0.000000
RightFoot -4.914312 -27.445270 5.103369
RightToeBase 13.458363 -0.000000 -0.000000
